<svg width="239" height="59" viewBox="0 0 239 59" fill="none" xmlns="http://www.w3.org/2000/svg">
<path d="M51.3396 47.9077V58.9442H0.439453V50.2203L32.7913 11.0265H1.10132V-0.0100098H50.4544V8.7139L17.9909 47.9077" fill="#400C7A"/>
<path d="M100.669 -0.0100098V30.0133C100.669 39.2635 93.1415 46.7913 83.8913 46.7913C74.6411 46.7913 67.1133 39.2635 67.1133 30.0133V-0.0100098H55.0322V30.0133C55.0322 45.9301 67.9825 58.8724 83.8913 58.8724C99.8001 58.8724 112.75 45.9301 112.75 30.0133V-0.0100098" fill="url(#paint0_linear_317_4702)"/>
<path d="M129.44 59L129.44 28.9767C129.44 19.7265 136.968 12.1987 146.218 12.1987C155.468 12.1987 162.996 19.7265 162.996 28.9767L162.996 59L175.077 59L175.077 28.9767C175.077 13.0599 162.127 0.117595 146.218 0.117593C130.309 0.117592 117.359 13.0599 117.359 28.9767L117.359 59" fill="url(#paint1_linear_317_4702)"/>
<path d="M209.119 -0.0100098C192.86 -0.0100098 179.678 13.1715 179.678 29.4312C179.678 45.6908 192.86 58.8724 209.119 58.8724C225.379 58.8724 238.56 45.6908 238.56 29.4312C238.56 13.1715 225.379 -0.0100098 209.119 -0.0100098ZM209.119 48.7929C198.426 48.7929 189.758 40.1248 189.758 29.4392C189.758 18.7536 198.426 10.0855 209.119 10.0855C219.813 10.0855 228.473 18.7536 228.473 29.4392C228.473 40.1248 219.813 48.7929 209.119 48.7929Z" fill="#400C7A"/>
<defs>
<linearGradient id="paint0_linear_317_4702" x1="84.1697" y1="59" x2="84.1697" y2="-0.0100098" gradientUnits="userSpaceOnUse">
<stop stop-color="#400C7A"/>
<stop offset="1" stop-color="#400C7A" stop-opacity="0"/>
</linearGradient>
<linearGradient id="paint1_linear_317_4702" x1="145.94" y1="-0.00999936" x2="145.94" y2="59" gradientUnits="userSpaceOnUse">
<stop stop-color="#400C7A"/>
<stop offset="1" stop-color="#400C7A" stop-opacity="0"/>
</linearGradient>
</defs>
</svg>
