<svg width="748" height="748" viewBox="0 0 748 748" fill="none" xmlns="http://www.w3.org/2000/svg">
<rect width="748" height="748" fill="none"/>
<rect width="1728" height="1117" transform="translate(-935 -102)" fill="none"/>
<!--<rect x="-68" y="-102" width="861" height="1117" fill="url(#paint0_linear_0_1)"/>-->
<g opacity="0.75">
<g opacity="0.25" filter="url(#filter0_f_0_1)">
<circle cx="373.854" cy="373.854" r="274.314" fill="white"/>
</g>
<circle opacity="0.25" cx="373.176" cy="373.176" r="329.176" fill="url(#paint1_linear_0_1)"/>
<g opacity="0.25" filter="url(#filter1_f_0_1)">
<circle cx="373.177" cy="373.177" r="200.486" fill="#400C7A"/>
</g>
<circle opacity="0.25" cx="373.177" cy="373.176" r="266.363" fill="url(#paint2_linear_0_1)" stroke="white"/>
</g>
<g opacity="0.25" filter="url(#filter2_b_0_1)">
<path fill-rule="evenodd" clip-rule="evenodd" d="M189.5 244C180.94 244 174 250.94 174 259.5C174 268.06 180.94 275 189.5 275H266C279.255 275 290 285.745 290 299V360C290 373.255 279.255 384 266 384H136.5C128.492 384 122 390.492 122 398.5C122 406.508 128.492 413 136.5 413H266C279.255 413 290 423.745 290 437V500C290 513.255 279.255 524 266 524H189.5C180.94 524 174 530.94 174 539.5C174 548.06 180.94 555 189.5 555H303.5C312.06 555 319 548.06 319 539.5C319 539.33 318.997 539.16 318.992 538.991C318.997 538.828 319 538.664 319 538.5V437C319 423.745 329.745 413 343 413H388.5C396.508 413 403 406.508 403 398.5C403 390.492 396.508 384 388.5 384H343C329.745 384 319 373.255 319 360V259.501V259.5V259.499V258.5C319 250.492 312.508 244 304.5 244C304.335 244 304.172 244.003 304.008 244.008C303.84 244.003 303.67 244 303.5 244H189.5Z" fill="url(#paint3_linear_0_1)"/>
</g>
<rect x="369" y="226" width="313" height="345" rx="15" fill="white"/>
<path d="M373 269H678V552C678 560.284 671.284 567 663 567H388C379.716 567 373 560.284 373 552V269Z" fill="#F0F5FB"/>
<circle cx="395.5" cy="248.5" r="7.5" fill="#F06261"/>
<circle cx="415.5" cy="248.5" r="7.5" fill="#F1CB4E"/>
<circle cx="435.5" cy="248.5" r="7.5" fill="#85C19B"/>
<rect x="574" y="245" width="87" height="8" rx="4" fill="#D9D9D9"/>
<rect x="554" y="302" width="81" height="5" rx="2.5" fill="#A5AFBB"/>
<rect x="392" y="291" width="134" height="27" fill="#E3E8ED"/>
<rect x="418" y="301" width="77" height="7" rx="3.5" fill="#A5AFBB"/>
<g opacity="0.5">
<rect x="388.5" y="409.5" width="272" height="62" rx="7.5" fill="white" stroke="#E4E4EC"/>
<rect x="452" y="429" width="115" height="8" rx="4" fill="#FFBA87"/>
<rect x="452" y="444" width="87" height="8" rx="4" fill="#E3CAFF"/>
<circle cx="423" cy="441" r="20" fill="#E4D0F9"/>
</g>
<g opacity="0.5">
<rect x="388.5" y="482.5" width="272" height="62" rx="7.5" fill="white" stroke="#E4E4EC"/>
<rect x="452" y="502" width="115" height="8" rx="4" fill="#FFBA87"/>
<rect x="452" y="517" width="87" height="8" rx="4" fill="#E3CAFF"/>
<circle cx="423" cy="514" r="20" fill="#E4D0F9"/>
</g>
<g filter="url(#filter3_di_0_1)">
<rect x="388" y="336" width="273" height="63" rx="8" fill="#E4D0F9"/>
<rect x="388.125" y="336.125" width="272.75" height="62.75" rx="7.875" stroke="#400C7A" stroke-width="0.25"/>
</g>
<path d="M463.839 378.23C463.112 378.956 462.224 379.319 461.172 379.319C460.121 379.319 459.232 378.956 458.505 378.23C457.779 377.496 457.416 376.607 457.416 375.563C457.416 374.518 457.779 373.633 458.505 372.906C459.232 372.173 460.121 371.807 461.172 371.807C462.224 371.807 463.112 372.173 463.839 372.906C464.565 373.633 464.928 374.518 464.928 375.563C464.928 376.607 464.565 377.496 463.839 378.23ZM459.014 377.731C459.595 378.319 460.314 378.613 461.172 378.613C462.03 378.613 462.749 378.319 463.33 377.731C463.911 377.137 464.202 376.414 464.202 375.563C464.202 374.712 463.911 373.993 463.33 373.405C462.749 372.81 462.03 372.512 461.172 372.512C460.314 372.512 459.595 372.81 459.014 373.405C458.433 373.993 458.142 374.712 458.142 375.563C458.142 376.414 458.433 377.137 459.014 377.731ZM472.313 374.006H473.019L471.421 379.195H470.674L469.335 375.013L467.997 379.195H467.25L465.652 374.006H466.357L467.634 378.313L468.993 374.006H469.678L471.037 378.313L472.313 374.006ZM476.48 373.882C477.109 373.882 477.604 374.076 477.964 374.463C478.33 374.843 478.514 375.359 478.514 376.009V379.195H477.829V376.009C477.829 375.546 477.704 375.186 477.455 374.93C477.213 374.674 476.867 374.546 476.418 374.546C475.92 374.546 475.515 374.705 475.204 375.023C474.892 375.335 474.737 375.819 474.737 376.476V379.195H474.052V374.006H474.737V374.816C475.124 374.193 475.705 373.882 476.48 373.882ZM482.235 373.882C483.003 373.882 483.622 374.155 484.092 374.702C484.57 375.241 484.808 375.881 484.808 376.621C484.808 376.697 484.801 376.805 484.787 376.943H480.232C480.301 377.469 480.523 377.887 480.896 378.198C481.277 378.503 481.744 378.655 482.297 378.655C482.691 378.655 483.03 378.575 483.314 378.416C483.605 378.25 483.822 378.036 483.968 377.773L484.57 378.126C484.341 378.492 484.03 378.783 483.636 378.997C483.241 379.212 482.792 379.319 482.287 379.319C481.47 379.319 480.806 379.063 480.294 378.551C479.783 378.039 479.527 377.389 479.527 376.6C479.527 375.826 479.779 375.179 480.284 374.66C480.789 374.141 481.439 373.882 482.235 373.882ZM482.235 374.546C481.695 374.546 481.242 374.708 480.876 375.034C480.516 375.352 480.301 375.767 480.232 376.279H484.103C484.033 375.732 483.822 375.307 483.47 375.002C483.117 374.698 482.705 374.546 482.235 374.546ZM490.359 371.931H491.044V379.195H490.359V378.178C489.882 378.939 489.183 379.319 488.263 379.319C487.523 379.319 486.89 379.056 486.365 378.53C485.846 378.005 485.586 377.361 485.586 376.6C485.586 375.84 485.846 375.196 486.365 374.67C486.89 374.145 487.523 373.882 488.263 373.882C489.183 373.882 489.882 374.262 490.359 375.023V371.931ZM486.863 378.064C487.257 378.458 487.741 378.655 488.315 378.655C488.889 378.655 489.374 378.458 489.768 378.064C490.162 377.662 490.359 377.175 490.359 376.6C490.359 376.026 490.162 375.542 489.768 375.148C489.374 374.747 488.889 374.546 488.315 374.546C487.741 374.546 487.257 374.747 486.863 375.148C486.468 375.542 486.271 376.026 486.271 376.6C486.271 377.175 486.468 377.662 486.863 378.064ZM497.869 373.882C498.61 373.882 499.239 374.145 499.758 374.67C500.284 375.196 500.546 375.84 500.546 376.6C500.546 377.361 500.284 378.005 499.758 378.53C499.239 379.056 498.61 379.319 497.869 379.319C496.949 379.319 496.251 378.939 495.773 378.178V379.195H495.088V371.931H495.773V375.023C496.251 374.262 496.949 373.882 497.869 373.882ZM496.365 378.064C496.759 378.458 497.243 378.655 497.817 378.655C498.392 378.655 498.876 378.458 499.27 378.064C499.664 377.662 499.862 377.175 499.862 376.6C499.862 376.026 499.664 375.542 499.27 375.148C498.876 374.747 498.392 374.546 497.817 374.546C497.243 374.546 496.759 374.747 496.365 375.148C495.97 375.542 495.773 376.026 495.773 376.6C495.773 377.175 495.97 377.662 496.365 378.064ZM505.218 374.006H505.944L503.724 379.672C503.523 380.184 503.236 380.585 502.863 380.876C502.496 381.173 502.084 381.304 501.628 381.27V380.627C502.25 380.696 502.724 380.336 503.049 379.547L503.184 379.226L500.86 374.006H501.586L503.537 378.354L505.218 374.006ZM509.47 371.931H510.196V379.195H509.47V371.931ZM514.186 373.882C514.815 373.882 515.31 374.076 515.67 374.463C516.036 374.843 516.22 375.359 516.22 376.009V379.195H515.535V376.009C515.535 375.546 515.41 375.186 515.161 374.93C514.919 374.674 514.573 374.546 514.124 374.546C513.625 374.546 513.221 374.705 512.909 375.023C512.598 375.335 512.443 375.819 512.443 376.476V379.195H511.758V374.006H512.443V374.816C512.83 374.193 513.411 373.882 514.186 373.882ZM522.006 371.931H522.691V379.195H522.006V378.178C521.528 378.939 520.83 379.319 519.91 379.319C519.169 379.319 518.536 379.056 518.011 378.53C517.492 378.005 517.232 377.361 517.232 376.6C517.232 375.84 517.492 375.196 518.011 374.67C518.536 374.145 519.169 373.882 519.91 373.882C520.83 373.882 521.528 374.262 522.006 375.023V371.931ZM518.509 378.064C518.903 378.458 519.387 378.655 519.962 378.655C520.536 378.655 521.02 378.458 521.414 378.064C521.809 377.662 522.006 377.175 522.006 376.6C522.006 376.026 521.809 375.542 521.414 375.148C521.02 374.747 520.536 374.546 519.962 374.546C519.387 374.546 518.903 374.747 518.509 375.148C518.114 375.542 517.917 376.026 517.917 376.6C517.917 377.175 518.114 377.662 518.509 378.064ZM524.836 372.761C524.739 372.858 524.621 372.906 524.483 372.906C524.345 372.906 524.227 372.858 524.13 372.761C524.033 372.664 523.985 372.547 523.985 372.408C523.985 372.27 524.033 372.152 524.13 372.056C524.227 371.959 524.345 371.91 524.483 371.91C524.621 371.91 524.739 371.959 524.836 372.056C524.933 372.152 524.981 372.27 524.981 372.408C524.981 372.547 524.933 372.664 524.836 372.761ZM524.141 379.195V374.006H524.825V379.195H524.141ZM530.014 374.006H530.741L528.613 379.195H527.783L525.656 374.006H526.382L528.198 378.479L530.014 374.006ZM532.263 372.761C532.167 372.858 532.049 372.906 531.911 372.906C531.772 372.906 531.655 372.858 531.558 372.761C531.461 372.664 531.413 372.547 531.413 372.408C531.413 372.27 531.461 372.152 531.558 372.056C531.655 371.959 531.772 371.91 531.911 371.91C532.049 371.91 532.167 371.959 532.263 372.056C532.36 372.152 532.409 372.27 532.409 372.408C532.409 372.547 532.36 372.664 532.263 372.761ZM531.568 379.195V374.006H532.253V379.195H531.568ZM538.168 371.931H538.853V379.195H538.168V378.178C537.691 378.939 536.992 379.319 536.072 379.319C535.332 379.319 534.699 379.056 534.173 378.53C533.654 378.005 533.395 377.361 533.395 376.6C533.395 375.84 533.654 375.196 534.173 374.67C534.699 374.145 535.332 373.882 536.072 373.882C536.992 373.882 537.691 374.262 538.168 375.023V371.931ZM534.671 378.064C535.066 378.458 535.55 378.655 536.124 378.655C536.698 378.655 537.182 378.458 537.577 378.064C537.971 377.662 538.168 377.175 538.168 376.6C538.168 376.026 537.971 375.542 537.577 375.148C537.182 374.747 536.698 374.546 536.124 374.546C535.55 374.546 535.066 374.747 534.671 375.148C534.277 375.542 534.08 376.026 534.08 376.6C534.08 377.175 534.277 377.662 534.671 378.064ZM543.956 374.006H544.64V379.195H543.956V378.385C543.568 379.008 542.987 379.319 542.212 379.319C541.583 379.319 541.085 379.129 540.718 378.748C540.358 378.361 540.179 377.842 540.179 377.192V374.006H540.863V377.192C540.863 377.655 540.985 378.015 541.227 378.271C541.476 378.527 541.825 378.655 542.275 378.655C542.773 378.655 543.177 378.499 543.489 378.188C543.8 377.87 543.956 377.382 543.956 376.725V374.006ZM550.551 374.006H551.236V379.195H550.551V378.178C550.074 378.939 549.375 379.319 548.455 379.319C547.715 379.319 547.082 379.056 546.556 378.53C546.037 378.005 545.778 377.361 545.778 376.6C545.778 375.84 546.037 375.196 546.556 374.67C547.082 374.145 547.715 373.882 548.455 373.882C549.375 373.882 550.074 374.262 550.551 375.023V374.006ZM547.054 378.064C547.449 378.458 547.933 378.655 548.507 378.655C549.081 378.655 549.565 378.458 549.96 378.064C550.354 377.662 550.551 377.175 550.551 376.6C550.551 376.026 550.354 375.542 549.96 375.148C549.565 374.747 549.081 374.546 548.507 374.546C547.933 374.546 547.449 374.747 547.054 375.148C546.66 375.542 546.463 376.026 546.463 376.6C546.463 377.175 546.66 377.662 547.054 378.064ZM552.686 379.195V371.62H553.371V379.195H552.686ZM555.364 375.366C555.364 375.601 555.467 375.788 555.675 375.926C555.883 376.064 556.135 376.172 556.432 376.248C556.73 376.324 557.027 376.41 557.325 376.507C557.622 376.597 557.875 376.753 558.082 376.974C558.29 377.188 558.394 377.472 558.394 377.825C558.394 378.268 558.217 378.627 557.864 378.904C557.519 379.181 557.069 379.319 556.515 379.319C556.017 379.319 555.592 379.208 555.239 378.987C554.893 378.766 554.651 378.479 554.513 378.126L555.094 377.783C555.191 378.053 555.364 378.268 555.613 378.427C555.869 378.579 556.17 378.655 556.515 378.655C556.854 378.655 557.138 378.589 557.366 378.458C557.595 378.319 557.709 378.109 557.709 377.825C557.709 377.59 557.605 377.403 557.397 377.265C557.19 377.126 556.937 377.019 556.64 376.943C556.343 376.867 556.045 376.784 555.748 376.694C555.45 376.597 555.198 376.441 554.99 376.227C554.783 376.006 554.679 375.718 554.679 375.366C554.679 374.944 554.845 374.591 555.177 374.307C555.516 374.024 555.941 373.882 556.453 373.882C556.875 373.882 557.245 373.979 557.563 374.172C557.882 374.359 558.117 374.615 558.269 374.94L557.698 375.272C557.498 374.788 557.083 374.546 556.453 374.546C556.156 374.546 555.9 374.619 555.685 374.764C555.471 374.902 555.364 375.103 555.364 375.366Z" fill="#400C7A"/>
<path d="M462.991 364.012L461.11 360.77H459.709V364.012H457.868V354.674H461.603C462.466 354.674 463.2 354.976 463.805 355.581C464.41 356.186 464.712 356.915 464.712 357.769C464.712 358.347 464.547 358.885 464.218 359.383C463.889 359.872 463.453 360.241 462.911 360.49L464.979 364.012H462.991ZM459.709 356.395V359.156H461.603C461.95 359.156 462.248 359.023 462.497 358.756C462.746 358.48 462.871 358.151 462.871 357.769C462.871 357.386 462.746 357.062 462.497 356.795C462.248 356.528 461.95 356.395 461.603 356.395H459.709ZM467.098 361.384C467.329 362.22 467.957 362.638 468.979 362.638C469.638 362.638 470.136 362.416 470.474 361.971L471.861 362.772C471.203 363.723 470.233 364.199 468.953 364.199C467.85 364.199 466.965 363.866 466.298 363.199C465.631 362.532 465.297 361.691 465.297 360.677C465.297 359.672 465.626 358.836 466.284 358.169C466.943 357.493 467.788 357.155 468.819 357.155C469.798 357.155 470.603 357.493 471.234 358.169C471.874 358.845 472.195 359.681 472.195 360.677C472.195 360.899 472.172 361.135 472.128 361.384H467.098ZM467.072 360.05H470.474C470.376 359.596 470.171 359.258 469.86 359.036C469.557 358.814 469.211 358.703 468.819 358.703C468.357 358.703 467.974 358.823 467.672 359.063C467.37 359.294 467.169 359.623 467.072 360.05ZM474.723 359.236C474.723 359.414 474.839 359.561 475.07 359.677C475.31 359.783 475.599 359.881 475.937 359.97C476.275 360.05 476.613 360.157 476.951 360.29C477.289 360.415 477.574 360.628 477.805 360.931C478.045 361.233 478.165 361.611 478.165 362.065C478.165 362.749 477.907 363.279 477.391 363.652C476.884 364.017 476.248 364.199 475.483 364.199C474.114 364.199 473.18 363.67 472.682 362.612L474.176 361.771C474.372 362.349 474.808 362.638 475.483 362.638C476.097 362.638 476.404 362.447 476.404 362.065C476.404 361.887 476.284 361.744 476.044 361.638C475.813 361.522 475.528 361.42 475.19 361.331C474.852 361.242 474.514 361.131 474.176 360.997C473.838 360.864 473.549 360.655 473.309 360.37C473.078 360.077 472.962 359.712 472.962 359.276C472.962 358.618 473.202 358.102 473.682 357.729C474.172 357.346 474.776 357.155 475.497 357.155C476.039 357.155 476.533 357.28 476.978 357.529C477.422 357.769 477.774 358.116 478.032 358.569L476.564 359.37C476.351 358.916 475.995 358.689 475.497 358.689C475.274 358.689 475.088 358.738 474.936 358.836C474.794 358.934 474.723 359.067 474.723 359.236ZM482.892 358.996H481.384V361.771C481.384 362.002 481.442 362.171 481.558 362.278C481.674 362.385 481.842 362.447 482.065 362.465C482.287 362.474 482.563 362.469 482.892 362.451V364.012C481.709 364.146 480.873 364.035 480.384 363.679C479.904 363.323 479.663 362.687 479.663 361.771V358.996H478.503V357.342H479.663V355.994L481.384 355.474V357.342H482.892V358.996ZM488.967 357.342H490.688V364.012H488.967V363.225C488.451 363.875 487.726 364.199 486.792 364.199C485.903 364.199 485.138 363.861 484.497 363.185C483.866 362.5 483.55 361.664 483.55 360.677C483.55 359.69 483.866 358.858 484.497 358.182C485.138 357.497 485.903 357.155 486.792 357.155C487.726 357.155 488.451 357.48 488.967 358.129V357.342ZM485.791 362.038C486.138 362.385 486.579 362.558 487.112 362.558C487.646 362.558 488.086 362.385 488.433 362.038C488.789 361.682 488.967 361.229 488.967 360.677C488.967 360.126 488.789 359.677 488.433 359.33C488.086 358.974 487.646 358.796 487.112 358.796C486.579 358.796 486.138 358.974 485.791 359.33C485.445 359.677 485.271 360.126 485.271 360.677C485.271 361.229 485.445 361.682 485.791 362.038ZM496.651 357.342H498.372V364.012H496.651V363.265C496.233 363.888 495.57 364.199 494.663 364.199C493.934 364.199 493.329 363.955 492.849 363.465C492.377 362.976 492.141 362.3 492.141 361.438V357.342H493.863V361.224C493.863 361.669 493.983 362.011 494.223 362.251C494.463 362.483 494.783 362.598 495.183 362.598C495.628 362.598 495.984 362.46 496.251 362.185C496.517 361.909 496.651 361.495 496.651 360.944V357.342ZM501.669 358.489C501.829 358.062 502.092 357.742 502.456 357.529C502.83 357.315 503.243 357.208 503.697 357.208V359.13C503.172 359.067 502.701 359.174 502.283 359.45C501.874 359.725 501.669 360.183 501.669 360.824V364.012H499.948V357.342H501.669V358.489ZM509.526 357.342H511.247V364.012H509.526V363.225C509.01 363.875 508.285 364.199 507.351 364.199C506.462 364.199 505.697 363.861 505.056 363.185C504.425 362.5 504.109 361.664 504.109 360.677C504.109 359.69 504.425 358.858 505.056 358.182C505.697 357.497 506.462 357.155 507.351 357.155C508.285 357.155 509.01 357.48 509.526 358.129V357.342ZM506.35 362.038C506.697 362.385 507.137 362.558 507.671 362.558C508.205 362.558 508.645 362.385 508.992 362.038C509.348 361.682 509.526 361.229 509.526 360.677C509.526 360.126 509.348 359.677 508.992 359.33C508.645 358.974 508.205 358.796 507.671 358.796C507.137 358.796 506.697 358.974 506.35 359.33C506.003 359.677 505.83 360.126 505.83 360.677C505.83 361.229 506.003 361.682 506.35 362.038ZM516.516 357.155C517.245 357.155 517.846 357.4 518.317 357.889C518.797 358.378 519.038 359.054 519.038 359.917V364.012H517.317V360.13C517.317 359.685 517.196 359.347 516.956 359.116C516.716 358.876 516.396 358.756 515.996 358.756C515.551 358.756 515.195 358.894 514.928 359.17C514.662 359.445 514.528 359.859 514.528 360.41V364.012H512.807V357.342H514.528V358.089C514.946 357.466 515.609 357.155 516.516 357.155ZM524.323 358.996H522.815V361.771C522.815 362.002 522.873 362.171 522.988 362.278C523.104 362.385 523.273 362.447 523.495 362.465C523.718 362.474 523.994 362.469 524.323 362.451V364.012C523.14 364.146 522.304 364.035 521.814 363.679C521.334 363.323 521.094 362.687 521.094 361.771V358.996H519.933V357.342H521.094V355.994L522.815 355.474V357.342H524.323V358.996Z" fill="#400C7A"/>
<path d="M423.975 357.713H408.55C408.245 357.713 407.999 357.959 407.999 358.264V358.815C407.999 359.119 408.245 359.366 408.55 359.366H423.975C424.28 359.366 424.526 359.119 424.526 358.815V358.264C424.526 357.959 424.28 357.713 423.975 357.713Z" fill="#400C7A"/>
<path d="M422.684 355.813C422.639 355.721 422.569 355.644 422.482 355.59C422.395 355.536 422.294 355.508 422.192 355.508H410.332C410.229 355.508 410.129 355.536 410.042 355.59C409.955 355.644 409.885 355.721 409.839 355.813L409.44 356.61H423.083L422.684 355.813Z" fill="#400C7A"/>
<path d="M411.734 380.85H419.417C418.945 380.438 418.567 379.93 418.308 379.36C418.049 378.79 417.915 378.171 417.915 377.545V376.994C417.916 376.753 417.969 376.516 418.072 376.298C418.175 376.08 418.324 375.888 418.51 375.735C418.127 375.329 417.914 374.792 417.915 374.234C417.916 373.675 418.132 373.139 418.517 372.735C418.349 372.6 418.209 372.433 418.107 372.243C418.004 372.053 417.941 371.844 417.921 371.629C417.902 371.404 417.93 371.177 418.003 370.963C418.077 370.749 418.194 370.552 418.347 370.386C418.07 370.084 417.916 369.69 417.915 369.281C417.918 367.704 418.44 366.172 419.402 364.922C420.364 363.672 421.711 362.775 423.235 362.368L423.381 360.466H409.144L410.636 379.833C410.658 380.109 410.783 380.367 410.986 380.555C411.19 380.744 411.456 380.849 411.734 380.85Z" fill="#400C7A"/>
<path d="M438.849 376.993C438.849 376.847 438.791 376.707 438.688 376.604C438.585 376.501 438.445 376.443 438.298 376.443H419.567C419.421 376.443 419.281 376.501 419.178 376.604C419.074 376.707 419.016 376.847 419.016 376.993V377.544C419.017 378.421 419.366 379.261 419.985 379.881C420.605 380.5 421.445 380.849 422.322 380.85H435.544C436.42 380.849 437.261 380.5 437.88 379.881C438.5 379.261 438.848 378.421 438.849 377.544V376.993Z" fill="#400C7A"/>
<path d="M416.815 354.406V351.431C416.815 351.312 416.776 351.195 416.704 351.1C416.632 351.004 416.531 350.935 416.416 350.902L413.289 350.007C413.237 349.993 413.181 350 413.133 350.026C413.086 350.052 413.05 350.096 413.035 350.148L412.845 350.812C412.83 350.865 412.837 350.921 412.863 350.969C412.89 351.016 412.934 351.052 412.987 351.067L415.317 351.732C415.431 351.766 415.532 351.835 415.603 351.931C415.675 352.026 415.713 352.142 415.713 352.262V354.406H416.815Z" fill="#400C7A"/>
<path d="M437.748 373.138H436.05C435.847 373.138 435.651 373.207 435.492 373.333L434.031 374.5C433.796 374.689 433.504 374.792 433.203 374.792C432.901 374.792 432.609 374.689 432.374 374.5L430.913 373.333C430.754 373.207 430.558 373.138 430.355 373.138H420.118C419.826 373.138 419.546 373.254 419.339 373.461C419.132 373.667 419.016 373.948 419.016 374.24C419.016 374.532 419.132 374.812 419.339 375.019C419.546 375.226 419.826 375.342 420.118 375.342H437.748C438.04 375.342 438.32 375.226 438.527 375.019C438.733 374.812 438.849 374.532 438.849 374.24C438.849 373.948 438.733 373.667 438.527 373.461C438.32 373.254 438.04 373.138 437.748 373.138Z" fill="#400C7A"/>
<path d="M432.789 363.221H425.076C423.47 363.223 421.929 363.862 420.793 364.998C419.657 366.134 419.018 367.674 419.016 369.281C419.016 369.427 419.074 369.567 419.178 369.67C419.281 369.774 419.421 369.832 419.567 369.832H438.298C438.445 369.832 438.585 369.774 438.688 369.67C438.791 369.567 438.849 369.427 438.849 369.281C438.847 367.674 438.208 366.134 437.072 364.998C435.936 363.862 434.396 363.223 432.789 363.221ZM425.076 367.628H424.526C424.379 367.628 424.239 367.57 424.136 367.467C424.033 367.363 423.975 367.223 423.975 367.077C423.975 366.931 424.033 366.791 424.136 366.688C424.239 366.584 424.379 366.526 424.526 366.526H425.076C425.223 366.526 425.363 366.584 425.466 366.688C425.569 366.791 425.627 366.931 425.627 367.077C425.627 367.223 425.569 367.363 425.466 367.467C425.363 367.57 425.223 367.628 425.076 367.628ZM426.729 365.424H426.178C426.032 365.424 425.892 365.366 425.789 365.263C425.685 365.16 425.627 365.02 425.627 364.874C425.627 364.727 425.685 364.587 425.789 364.484C425.892 364.381 426.032 364.323 426.178 364.323H426.729C426.875 364.323 427.015 364.381 427.119 364.484C427.222 364.587 427.28 364.727 427.28 364.874C427.28 365.02 427.222 365.16 427.119 365.263C427.015 365.366 426.875 365.424 426.729 365.424ZM430.035 367.077H429.484C429.338 367.077 429.198 367.019 429.094 366.916C428.991 366.813 428.933 366.672 428.933 366.526C428.933 366.38 428.991 366.24 429.094 366.137C429.198 366.033 429.338 365.975 429.484 365.975H430.035C430.181 365.975 430.321 366.033 430.424 366.137C430.528 366.24 430.586 366.38 430.586 366.526C430.586 366.672 430.528 366.813 430.424 366.916C430.321 367.019 430.181 367.077 430.035 367.077Z" fill="#400C7A"/>
<path d="M419.568 370.934C419.497 370.933 419.427 370.947 419.361 370.974C419.295 371.001 419.236 371.042 419.186 371.092C419.126 371.149 419.08 371.218 419.052 371.295C419.023 371.372 419.013 371.454 419.021 371.536C419.044 371.679 419.119 371.809 419.231 371.901C419.343 371.993 419.485 372.041 419.63 372.036H430.356C430.809 372.036 431.247 372.19 431.601 372.472L433.062 373.638C433.102 373.67 433.152 373.688 433.204 373.688C433.255 373.688 433.305 373.67 433.345 373.638L434.805 372.473C435.159 372.191 435.598 372.037 436.05 372.036H438.299C438.37 372.036 438.441 372.023 438.506 371.996C438.572 371.968 438.631 371.928 438.681 371.878C438.74 371.822 438.786 371.753 438.814 371.676C438.843 371.6 438.854 371.518 438.846 371.437C438.824 371.293 438.749 371.163 438.637 371.07C438.525 370.978 438.383 370.929 438.238 370.934H419.568Z" fill="#400C7A"/>
<rect x="622.5" y="358.5" width="17" height="17" rx="2.5" fill="#400C7A" stroke="#400C7A"/>
<path d="M636.025 363.4C635.725 363.1 635.275 363.1 634.975 363.4L629.35 369.025L627.025 366.7C626.725 366.4 626.275 366.4 625.975 366.7C625.675 367 625.675 367.45 625.975 367.75L628.825 370.6C628.975 370.75 629.125 370.825 629.35 370.825C629.575 370.825 629.725 370.75 629.875 370.6L636.025 364.45C636.325 364.15 636.325 363.7 636.025 363.4Z" fill="white"/>
<g filter="url(#filter4_bd_0_1)">
<circle cx="167" cy="256" r="45" fill="white" fill-opacity="0.25" shape-rendering="crispEdges"/>
<circle cx="167" cy="256" r="45.125" stroke="white" stroke-width="0.25" shape-rendering="crispEdges"/>
</g>
<circle cx="166.5" cy="255.5" r="22.5" fill="white"/>
<g filter="url(#filter5_bd_0_1)">
<circle cx="167" cy="539" r="45" fill="white" fill-opacity="0.25" shape-rendering="crispEdges"/>
<circle cx="167" cy="539" r="45.125" stroke="white" stroke-width="0.25" shape-rendering="crispEdges"/>
</g>
<circle cx="166.5" cy="538.5" r="22.5" fill="white"/>
<g filter="url(#filter6_bd_0_1)">
<circle cx="112.5" cy="395.5" r="52.5" fill="white" fill-opacity="0.25" shape-rendering="crispEdges"/>
<circle cx="112.5" cy="395.5" r="52.625" stroke="white" stroke-width="0.25" shape-rendering="crispEdges"/>
</g>
<circle cx="112.991" cy="395.991" r="43.3026" fill="#400C7A" stroke="white" stroke-width="0.25"/>
<mask id="mask0_0_1" style="mask-type:luminance" maskUnits="userSpaceOnUse" x="84" y="381" width="29" height="30">
<path d="M112.386 381H84V410.685H112.386V381Z" fill="white"/>
</mask>
<g mask="url(#mask0_0_1)">
<mask id="mask1_0_1" style="mask-type:luminance" maskUnits="userSpaceOnUse" x="84" y="381" width="29" height="30">
<path d="M106.431 381.019V396.133C106.431 400.789 102.734 404.578 98.1912 404.578C93.6482 404.578 89.9511 400.789 89.9511 396.133V381.019H84.0177V396.133C84.0177 404.145 90.378 410.664 98.1912 410.664C106.005 410.664 112.365 404.149 112.365 396.137V381.019H106.431Z" fill="white"/>
</mask>
<g mask="url(#mask1_0_1)">
<path d="M106.431 381.019V396.133C106.431 400.789 102.734 404.578 98.1912 404.578C93.6482 404.578 89.9511 400.789 89.9511 396.133V381.019H84.0177V396.133C84.0177 404.145 90.378 410.664 98.1912 410.664C106.005 410.664 112.365 404.149 112.365 396.137V381.019" fill="url(#paint4_linear_0_1)"/>
</g>
</g>
<mask id="mask2_0_1" style="mask-type:luminance" maskUnits="userSpaceOnUse" x="114" y="381" width="29" height="30">
<path d="M142.998 381H114.608V410.685H142.998V381Z" fill="white"/>
</mask>
<g mask="url(#mask2_0_1)">
<mask id="mask3_0_1" style="mask-type:luminance" maskUnits="userSpaceOnUse" x="114" y="381" width="29" height="30">
<path d="M114.634 395.547V410.66H120.568V395.547C120.568 390.89 124.265 387.101 128.808 387.101C133.351 387.101 137.048 390.89 137.048 395.547V410.66H142.981V395.547C142.981 387.534 136.621 381.019 128.808 381.019C120.995 381.019 114.634 387.534 114.634 395.547Z" fill="white"/>
</mask>
<g mask="url(#mask3_0_1)">
<path d="M114.634 395.547V410.66H120.568V395.547C120.568 390.89 124.265 387.101 128.808 387.101C133.351 387.101 137.048 390.89 137.048 395.547V410.66H142.981V395.547C142.981 387.534 136.621 381.019 128.808 381.019C120.995 381.019 114.634 387.534 114.634 395.547Z" fill="url(#paint5_linear_0_1)"/>
</g>
</g>
<defs>
<filter id="filter0_f_0_1" x="0.0402832" y="0.0402832" width="747.627" height="747.627" filterUnits="userSpaceOnUse" color-interpolation-filters="sRGB">
<feFlood flood-opacity="0" result="BackgroundImageFix"/>
<feBlend mode="normal" in="SourceGraphic" in2="BackgroundImageFix" result="shape"/>
<feGaussianBlur stdDeviation="49.75" result="effect1_foregroundBlur_0_1"/>
</filter>
<filter id="filter1_f_0_1" x="73.1906" y="73.1906" width="599.972" height="599.972" filterUnits="userSpaceOnUse" color-interpolation-filters="sRGB">
<feFlood flood-opacity="0" result="BackgroundImageFix"/>
<feBlend mode="normal" in="SourceGraphic" in2="BackgroundImageFix" result="shape"/>
<feGaussianBlur stdDeviation="49.75" result="effect1_foregroundBlur_0_1"/>
</filter>
<filter id="filter2_b_0_1" x="28" y="150" width="469" height="499" filterUnits="userSpaceOnUse" color-interpolation-filters="sRGB">
<feFlood flood-opacity="0" result="BackgroundImageFix"/>
<feGaussianBlur in="BackgroundImageFix" stdDeviation="47"/>
<feComposite in2="SourceAlpha" operator="in" result="effect1_backgroundBlur_0_1"/>
<feBlend mode="normal" in="SourceGraphic" in2="effect1_backgroundBlur_0_1" result="shape"/>
</filter>
<filter id="filter3_di_0_1" x="385.035" y="336" width="278.929" height="68.9294" filterUnits="userSpaceOnUse" color-interpolation-filters="sRGB">
<feFlood flood-opacity="0" result="BackgroundImageFix"/>
<feColorMatrix in="SourceAlpha" type="matrix" values="0 0 0 0 0 0 0 0 0 0 0 0 0 0 0 0 0 0 127 0" result="hardAlpha"/>
<feOffset dy="2.96471"/>
<feGaussianBlur stdDeviation="1.48235"/>
<feComposite in2="hardAlpha" operator="out"/>
<feColorMatrix type="matrix" values="0 0 0 0 0 0 0 0 0 0 0 0 0 0 0 0 0 0 0.1 0"/>
<feBlend mode="normal" in2="BackgroundImageFix" result="effect1_dropShadow_0_1"/>
<feBlend mode="normal" in="SourceGraphic" in2="effect1_dropShadow_0_1" result="shape"/>
<feColorMatrix in="SourceAlpha" type="matrix" values="0 0 0 0 0 0 0 0 0 0 0 0 0 0 0 0 0 0 127 0" result="hardAlpha"/>
<feOffset dy="4"/>
<feGaussianBlur stdDeviation="7.04118"/>
<feComposite in2="hardAlpha" operator="arithmetic" k2="-1" k3="1"/>
<feColorMatrix type="matrix" values="0 0 0 0 0.564706 0 0 0 0 0.0117647 0 0 0 0 0.870588 0 0 0 0.2 0"/>
<feBlend mode="normal" in2="shape" result="effect2_innerShadow_0_1"/>
</filter>
<filter id="filter4_bd_0_1" x="-178.25" y="-89.25" width="690.5" height="690.5" filterUnits="userSpaceOnUse" color-interpolation-filters="sRGB">
<feFlood flood-opacity="0" result="BackgroundImageFix"/>
<feGaussianBlur in="BackgroundImageFix" stdDeviation="150"/>
<feComposite in2="SourceAlpha" operator="in" result="effect1_backgroundBlur_0_1"/>
<feColorMatrix in="SourceAlpha" type="matrix" values="0 0 0 0 0 0 0 0 0 0 0 0 0 0 0 0 0 0 127 0" result="hardAlpha"/>
<feOffset dx="2"/>
<feGaussianBlur stdDeviation="2.9"/>
<feComposite in2="hardAlpha" operator="out"/>
<feColorMatrix type="matrix" values="0 0 0 0 0 0 0 0 0 0 0 0 0 0 0 0 0 0 0.14 0"/>
<feBlend mode="normal" in2="effect1_backgroundBlur_0_1" result="effect2_dropShadow_0_1"/>
<feBlend mode="normal" in="SourceGraphic" in2="effect2_dropShadow_0_1" result="shape"/>
</filter>
<filter id="filter5_bd_0_1" x="-178.25" y="193.75" width="690.5" height="690.5" filterUnits="userSpaceOnUse" color-interpolation-filters="sRGB">
<feFlood flood-opacity="0" result="BackgroundImageFix"/>
<feGaussianBlur in="BackgroundImageFix" stdDeviation="150"/>
<feComposite in2="SourceAlpha" operator="in" result="effect1_backgroundBlur_0_1"/>
<feColorMatrix in="SourceAlpha" type="matrix" values="0 0 0 0 0 0 0 0 0 0 0 0 0 0 0 0 0 0 127 0" result="hardAlpha"/>
<feOffset dx="2"/>
<feGaussianBlur stdDeviation="2.9"/>
<feComposite in2="hardAlpha" operator="out"/>
<feColorMatrix type="matrix" values="0 0 0 0 0 0 0 0 0 0 0 0 0 0 0 0 0 0 0.14 0"/>
<feBlend mode="normal" in2="effect1_backgroundBlur_0_1" result="effect2_dropShadow_0_1"/>
<feBlend mode="normal" in="SourceGraphic" in2="effect2_dropShadow_0_1" result="shape"/>
</filter>
<filter id="filter6_bd_0_1" x="-240.25" y="42.75" width="705.5" height="705.5" filterUnits="userSpaceOnUse" color-interpolation-filters="sRGB">
<feFlood flood-opacity="0" result="BackgroundImageFix"/>
<feGaussianBlur in="BackgroundImageFix" stdDeviation="150"/>
<feComposite in2="SourceAlpha" operator="in" result="effect1_backgroundBlur_0_1"/>
<feColorMatrix in="SourceAlpha" type="matrix" values="0 0 0 0 0 0 0 0 0 0 0 0 0 0 0 0 0 0 127 0" result="hardAlpha"/>
<feOffset dx="2"/>
<feGaussianBlur stdDeviation="2.9"/>
<feComposite in2="hardAlpha" operator="out"/>
<feColorMatrix type="matrix" values="0 0 0 0 0 0 0 0 0 0 0 0 0 0 0 0 0 0 0.14 0"/>
<feBlend mode="normal" in2="effect1_backgroundBlur_0_1" result="effect2_dropShadow_0_1"/>
<feBlend mode="normal" in="SourceGraphic" in2="effect2_dropShadow_0_1" result="shape"/>
</filter>
<linearGradient id="paint0_linear_0_1" x1="362.5" y1="-102" x2="362.5" y2="1015" gradientUnits="userSpaceOnUse">
<stop stop-color="#9003DE"/>
<stop offset="1" stop-color="#400C7A"/>
</linearGradient>
<linearGradient id="paint1_linear_0_1" x1="373.176" y1="44" x2="373.176" y2="702.353" gradientUnits="userSpaceOnUse">
<stop stop-color="white"/>
<stop offset="1" stop-color="#400C7A" stop-opacity="0"/>
</linearGradient>
<linearGradient id="paint2_linear_0_1" x1="373.177" y1="106.313" x2="373.177" y2="640.039" gradientUnits="userSpaceOnUse">
<stop stop-color="white"/>
<stop offset="1" stop-color="#400C7A" stop-opacity="0"/>
</linearGradient>
<linearGradient id="paint3_linear_0_1" x1="403" y1="399.5" x2="122" y2="399.5" gradientUnits="userSpaceOnUse">
<stop stop-color="white"/>
<stop offset="0.48" stop-color="#D9CEE4" stop-opacity="0.8"/>
<stop offset="1" stop-color="#400C7A" stop-opacity="0"/>
</linearGradient>
<linearGradient id="paint4_linear_0_1" x1="98.1912" y1="410.664" x2="98.1912" y2="381.019" gradientUnits="userSpaceOnUse">
<stop offset="0.5" stop-color="white"/>
<stop offset="1" stop-color="white" stop-opacity="0"/>
</linearGradient>
<linearGradient id="paint5_linear_0_1" x1="128.808" y1="381.019" x2="128.808" y2="410.66" gradientUnits="userSpaceOnUse">
<stop offset="0.5" stop-color="white"/>
<stop offset="1" stop-color="white" stop-opacity="0"/>
</linearGradient>
</defs>
</svg>
