<svg width="96" height="45" viewBox="0 0 96 45" fill="none" xmlns="http://www.w3.org/2000/svg">
<g opacity="0.25">
<mask id="mask0_610_4507" style="mask-type:luminance" maskUnits="userSpaceOnUse" x="0" y="0" width="47" height="45">
<path d="M46.1524 0.230026H0.5625V45H46.1524V0.230026Z" fill="white"/>
</mask>
<g mask="url(#mask0_610_4507)">
<mask id="mask1_610_4507" style="mask-type:luminance" maskUnits="userSpaceOnUse" x="0" y="0" width="47" height="45">
<path d="M36.5924 0.260864V23.0545C36.5924 30.0772 30.6546 35.7923 23.3582 35.7923C16.0618 35.7923 10.1241 30.0772 10.1241 23.0545V0.260864H0.594727V23.0545C0.594727 35.1384 10.8097 44.9703 23.3582 44.9703C35.9068 44.9703 46.1217 35.1445 46.1217 23.0605V0.260864H36.5924Z" fill="white"/>
</mask>
<g mask="url(#mask1_610_4507)">
<path d="M36.5924 0.260864V23.0545C36.5924 30.0772 30.6546 35.7923 23.3582 35.7923C16.0618 35.7923 10.1241 30.0772 10.1241 23.0545V0.260864H0.594727V23.0545C0.594727 35.1384 10.8097 44.9703 23.3582 44.9703C35.9068 44.9703 46.1217 35.1445 46.1217 23.0605V0.260864" fill="url(#paint0_linear_610_4507)"/>
</g>
</g>
<mask id="mask2_610_4507" style="mask-type:luminance" maskUnits="userSpaceOnUse" x="49" y="0" width="47" height="45">
<path d="M95.3208 0.229736H49.7246V44.9997H95.3208V0.229736Z" fill="white"/>
</mask>
<g mask="url(#mask2_610_4507)">
<mask id="mask3_610_4507" style="mask-type:luminance" maskUnits="userSpaceOnUse" x="49" y="0" width="47" height="45">
<path d="M49.7637 22.1708V44.9645H59.293V22.1708C59.293 15.1481 65.2308 9.43306 72.5272 9.43306C79.8236 9.43306 85.7613 15.1481 85.7613 22.1708V44.9645H95.2907V22.1708C95.2907 10.0869 85.0757 0.261124 72.5272 0.261124C59.9786 0.261124 49.7637 10.0869 49.7637 22.1708Z" fill="white"/>
</mask>
<g mask="url(#mask3_610_4507)">
<path d="M49.7637 22.1708V44.9645H59.293V22.1708C59.293 15.1481 65.2308 9.43306 72.5272 9.43306C79.8236 9.43306 85.7613 15.1481 85.7613 22.1708V44.9645H95.2907V22.1708C95.2907 10.0869 85.0757 0.261124 72.5272 0.261124C59.9786 0.261124 49.7637 10.0869 49.7637 22.1708Z" fill="url(#paint1_linear_610_4507)"/>
</g>
</g>
</g>
<defs>
<linearGradient id="paint0_linear_610_4507" x1="23.3582" y1="44.9703" x2="23.3582" y2="0.260864" gradientUnits="userSpaceOnUse">
<stop offset="0.5" stop-color="white"/>
<stop offset="1" stop-color="white" stop-opacity="0"/>
</linearGradient>
<linearGradient id="paint1_linear_610_4507" x1="72.5272" y1="0.261124" x2="72.5272" y2="44.9645" gradientUnits="userSpaceOnUse">
<stop offset="0.5" stop-color="white"/>
<stop offset="1" stop-color="white" stop-opacity="0"/>
</linearGradient>
</defs>
</svg>
