<svg width="21" height="24" viewBox="0 0 21 24" fill="none" xmlns="http://www.w3.org/2000/svg">
<path d="M3.42266 17.7581L1.40625 16.5917V14.2651C1.40625 13.8769 1.09141 13.562 0.703125 13.562C0.314844 13.562 0 13.8769 0 14.2651V16.5917C0 17.0933 0.270312 17.5604 0.704687 17.8128L2.71953 18.9761C2.83047 19.0401 2.95156 19.0706 3.07031 19.0706C3.31406 19.0706 3.54922 18.944 3.67969 18.719C3.875 18.3823 3.75937 17.9519 3.42266 17.7581Z" fill="#C1C1C1"/>
<path d="M0.703125 9.49832C1.09141 9.49832 1.40625 9.18348 1.40625 8.7952L1.40781 6.46629L3.42266 5.30301C3.75937 5.10848 3.875 4.67879 3.68047 4.34207C3.48594 4.00691 3.05703 3.89051 2.71953 4.08504L0.705469 5.24832C0.270312 5.4991 0 5.96629 0 6.46863V8.79598C0 9.18426 0.314844 9.49832 0.703125 9.49832Z" fill="#C1C1C1"/>
<path d="M8.15845 2.56885L10.1764 1.40557L12.1913 2.56885C12.3022 2.63291 12.4233 2.66338 12.542 2.66338C12.7858 2.66338 13.021 2.53682 13.1514 2.31182C13.346 1.9751 13.2311 1.54541 12.8944 1.35166L10.878 0.186817C10.4444 -0.0624022 9.90611 -0.0624023 9.46939 0.187598L7.45455 1.35088C7.11861 1.54541 7.00298 1.97588 7.19751 2.31182C7.39205 2.64775 7.82095 2.76416 8.15845 2.56885Z" fill="#C1C1C1"/>
<path d="M19.6453 5.24849L17.6305 4.08521C17.293 3.89068 16.8649 4.0063 16.6703 4.34224C16.4758 4.67896 16.5907 5.10865 16.9274 5.3024L18.9438 6.46802V8.79615C18.9438 9.18443 19.2586 9.49927 19.6469 9.49927C20.0352 9.49927 20.35 9.18443 20.35 8.79615V6.4688C20.35 5.96646 20.0797 5.49927 19.6453 5.24849Z" fill="#C1C1C1"/>
<path d="M19.6469 13.562C19.2586 13.562 18.9438 13.8769 18.9438 14.2651L18.9422 16.594L16.9274 17.7573C16.5907 17.9511 16.4758 18.3815 16.6703 18.7175C16.8008 18.9425 17.0367 19.069 17.2797 19.069C17.3985 19.069 17.5203 19.0386 17.6305 18.9745L19.6453 17.8112C20.0805 17.5597 20.35 17.0917 20.35 16.5901V14.2651C20.35 13.8769 20.0352 13.562 19.6469 13.562Z" fill="#C1C1C1"/>
<path d="M12.1916 20.4923L10.1737 21.6555L8.15882 20.4923C7.82132 20.2977 7.39319 20.4141 7.19866 20.7493C7.00413 21.086 7.11897 21.5157 7.45569 21.7095L9.4721 22.8735C9.68851 22.9977 9.93226 23.0602 10.1752 23.0602C10.4182 23.0602 10.6619 22.9977 10.8799 22.8727L12.8948 21.7095C13.2315 21.5157 13.3463 21.0852 13.1518 20.7493C12.9588 20.4141 12.5283 20.2977 12.1916 20.4923Z" fill="#C1C1C1"/>
<path d="M9.58887 11.8608L3.69824 8.4624V14.9679C3.69824 15.1554 3.7998 15.3272 3.96387 15.421L9.58887 18.6733V11.8608Z" fill="#400C7A"/>
<path d="M10.7607 11.861V18.6735L16.3857 15.4212C16.5498 15.3274 16.6514 15.1556 16.6514 14.9681V8.46338L10.7607 11.861Z" fill="#400C7A"/>
<path d="M16.0604 7.45186L10.4408 4.20264C10.2768 4.10889 10.0736 4.10889 9.90957 4.20264L4.29004 7.45186L10.1752 10.8464L16.0604 7.45186Z" fill="#400C7A"/>
</svg>
