<svg width="25" height="25" viewBox="0 0 25 25" fill="none" xmlns="http://www.w3.org/2000/svg">
<path d="M5.74767 18.7273L3.73126 17.5609V15.2344C3.73126 14.8461 3.41642 14.5312 3.02814 14.5312C2.63986 14.5312 2.32501 14.8461 2.32501 15.2344V17.5609C2.32501 18.0625 2.59532 18.5297 3.0297 18.782L5.04454 19.9453C5.15548 20.0094 5.27657 20.0398 5.39532 20.0398C5.63907 20.0398 5.87423 19.9133 6.0047 19.6883C6.20001 19.3516 6.08439 18.9211 5.74767 18.7273Z" fill="#C1C1C1"/>
<path d="M3.02814 10.468C3.41642 10.468 3.73126 10.1532 3.73126 9.76492L3.73282 7.43602L5.74767 6.27274C6.08439 6.0782 6.20001 5.64852 6.00548 5.3118C5.81095 4.97664 5.38204 4.86023 5.04454 5.05477L3.03048 6.21805C2.59532 6.46883 2.32501 6.93602 2.32501 7.43836V9.7657C2.32501 10.154 2.63986 10.468 3.02814 10.468Z" fill="#C1C1C1"/>
<path d="M10.4836 3.53833L12.5016 2.37505L14.5164 3.53833C14.6274 3.60239 14.7485 3.63286 14.8672 3.63286C15.111 3.63286 15.3461 3.5063 15.4766 3.2813C15.6711 2.94458 15.5563 2.51489 15.2196 2.32114L13.2031 1.1563C12.7696 0.90708 12.2313 0.90708 11.7946 1.15708L9.77971 2.32036C9.44377 2.51489 9.32815 2.94536 9.52268 3.2813C9.71721 3.61724 10.1461 3.73364 10.4836 3.53833Z" fill="#C1C1C1"/>
<path d="M21.9703 6.21797L19.9555 5.05469C19.618 4.86016 19.1899 4.97579 18.9953 5.31172C18.8008 5.64844 18.9156 6.07813 19.2524 6.27188L21.2688 7.43751V9.76563C21.2688 10.1539 21.5836 10.4688 21.9719 10.4688C22.3602 10.4688 22.675 10.1539 22.675 9.76563V7.43829C22.675 6.93594 22.4047 6.46876 21.9703 6.21797Z" fill="#C1C1C1"/>
<path d="M21.9719 14.5312C21.5836 14.5312 21.2688 14.8461 21.2688 15.2344L21.2672 17.5633L19.2524 18.7266C18.9156 18.9203 18.8008 19.3508 18.9953 19.6867C19.1258 19.9117 19.3617 20.0383 19.6047 20.0383C19.7234 20.0383 19.8453 20.0078 19.9555 19.9437L21.9703 18.7805C22.4055 18.5289 22.675 18.0609 22.675 17.5594V15.2344C22.675 14.8461 22.3602 14.5312 21.9719 14.5312Z" fill="#C1C1C1"/>
<path d="M14.5164 21.4617L12.4985 22.625L10.4836 21.4617C10.1461 21.2672 9.71799 21.3836 9.52346 21.7188C9.32893 22.0555 9.44377 22.4852 9.78049 22.6789L11.7969 23.843C12.0133 23.9672 12.2571 24.0297 12.5 24.0297C12.743 24.0297 12.9867 23.9672 13.2047 23.8422L15.2196 22.6789C15.5563 22.4852 15.6711 22.0547 15.4766 21.7188C15.2836 21.3836 14.8531 21.2672 14.5164 21.4617Z" fill="#C1C1C1"/>
<path d="M11.9141 12.8306L6.02344 9.43213V15.9376C6.02344 16.1251 6.125 16.297 6.28906 16.3907L11.9141 19.6431V12.8306Z" fill="#C1C1C1"/>
<path d="M13.0859 12.8305V19.643L18.7109 16.3907C18.875 16.2969 18.9766 16.125 18.9766 15.9375V9.43286L13.0859 12.8305Z" fill="#C1C1C1"/>
<path d="M18.3852 8.42109L12.7656 5.17187C12.6016 5.07812 12.3985 5.07812 12.2344 5.17187L6.61487 8.42109L12.5 11.8156L18.3852 8.42109Z" fill="#C1C1C1"/>
</svg>
